HIERARCHY
ROOT Shoulder
{
	OFFSET 0 0 0 
	CHANNELS 6 Xposition Yposition Zposition Zrotation Yrotation Xrotation 
	JOINT Elbow
	{
		OFFSET 1.0  -0.5 0
		CHANNELS 3 Zrotation Yrotation Xrotation
		JOINT Wrist
		{
			OFFSET 1.4  0.6 0
			CHANNELS 3 Zrotation Yrotation Xrotation
			End Site
			{
				OFFSET 1.0 0.1 0
			}
		}
	}
}
MOTION
Frames: 10
Frame Time: .1
0 0 0  3.0 0 0   8.0 0 0   -3.0 0 0
0 0 0  6.0 0 0  16.0 0 0   -6.0 0 0
0 0 0  9.0 0 0  24.0 0 0   -9.0 0 0
0 0 0 12.0 0 0  32.0 0 0  -12.0 0 0
0 0 0 15.0 0 0  40.0 0 0  -15.0 0 0
0 0 0 18.0 0 0  48.0 0 0  -18.0 0 0
0 0 0 21.0 0 0  56.0 0 0  -21.0 0 0
0 0 0 24.0 0 0  64.0 0 0  -24.0 0 0
0 0 0 27.0 0 0  72.0 0 0  -27.0 0 0
0 0 0 30.0 0 0  80.0 0 0  -30.0 0 0   
